<svg id="eZir1sOluxW1" xmlns="http://www.w3.org/2000/svg" xmlns:xlink="http://www.w3.org/1999/xlink" viewBox="0 0 256 276" shape-rendering="geometricPrecision" text-rendering="geometricPrecision">
  <path d="M122,0.514648C91.4395,6.77936,60.6493,28.0196,35,44.8619C25.2665,51.2532,11.154,59.6527,6.81481,71C-4.17744,99.7458,0,137.784,0,168c0,10.608-1.21062,27.761,4.72762,37C10.0231,213.239,20.0627,219.101,28,224.505c14.3315,9.757,28.9223,19.2,44,27.776c16.5818,9.432,40.835,27.478,61,23.201c31.496-6.679,63.741-29.452,90-47.152c10.335-6.966,23.891-15.052,28.3-27.33c10.709-29.821,5.768-71.194,1.985-102-1.27-10.3385-.93-23.9591-6.709-32.9992C233.932,46.2199,203.072,32.5729,183,21.6914c-16.755-9.0835-41.048-25.26672-61-21.176752Z" fill="#ffb501"/>
  <path d="M118,1l1,1-1-1Z" fill="#ffc401"/>
  <path d="M138,1l1,1-1-1Z" fill="#ffff01"/>
  <path d="M151,6l1,1-1-1Z" fill="#ffc401"/>
  <path d="M100,8l1,1-1-1Z" fill="#ffff01"/>
  <path d="M162,11l1,1-1-1Z" fill="#ffc401"/>
  <path d="M72,22l1,1-1-1m-9,5l1,1-1-1Z" fill="#ff7f01"/>
  <path d="M201,32l1,1-1-1M48,36l1,1-1-1Z" fill="#ffc401"/>
  <path d="M211,38l1,1-1-1M40,41l1,1-1-1Z" fill="#ffff01"/>
  <path d="M217,42l1,1-1-1M37,43l1,1-1-1Z" fill="#ffc401"/>
  <path d="M226,48l1,1-1-1Z" fill="#ff7f01"/>
  <path d="M27,50l1,1-1-1m203,1l1,1-1-1m4,3l1,1-1-1m10,9l1,1-1-1Z" fill="#ffc401"/>
  <path d="M245,64l1,1-1-1Z" fill="#ff7f01"/>
  <path d="M8,67l1,1-1-1m241,6l1,1-1-1M4,80l1,1-1-1m247,4l1,1-1-1Z" fill="#ffff01"/>
  <path d="M1,106l1,1-1-1Z" fill="#ffc401"/>
  <path d="M0,122l1,1-1-1Z" fill="#ff7f01"/>
  <path d="M255,175l1,1-1-1Z" fill="#ffc401"/>
  <path d="M0,181l1,1-1-1Z" fill="#ffc401"/>
  <path d="M1,192l1,1-1-1m252,0l1,1-1-1m-2,8l1,1-1-1M6,207l1,1-1-1m1,1l1,1-1-1m222,15l1,1-1-1Z" fill="#ffff01"/>
  <path d="M28,224l1,1-1-1m18,12l1,1-1-1m162,1l1,1-1-1Z" fill="#ffc401"/>
  <path d="M49,238l1,1-1-1Z" fill="#ffff01"/>
  <path d="M54,241l1,1-1-1Z" fill="#ffc401"/>
  <path d="M200,242l1,1-1-1M62,246l1,1-1-1Z" fill="#ffff01"/>
  <path d="M74,253l1,1-1-1Z" fill="#ff7f01"/>
  <path d="M179,254l1,1-1-1Z" fill="#ffc401"/>
  <path d="M81,257l1,1-1-1Z" fill="#ffff01"/>
  <path d="M83,258l1,1-1-1m61,13l1,1-1-1m-30,2l1,1-1-1m6,2l1,1-1-1Z" fill="#ffc401"/>
</svg>
